<svg id="Layer_5" enable-background="new 0 0 64 64" height="512" viewBox="0 0 64 64" width="512" xmlns="http://www.w3.org/2000/svg"><g><path d="m7 30c0-6.065 4.935-11 11-11 2.417 0 4.648.793 6.465 2.12l7.504-7.504 5.031 4.611v-7.227h-34v38h34v-8h-19c-6.065 0-11-4.935-11-11zm0 17h-2v-2h2zm4 0h-2v-2h2zm4 0h-2v-2h2z"/><path d="m37 6c0-1.654-1.346-3-3-3h-9v3c0 1.13-.391 2.162-1.026 3h13.026zm-3 1c-.552 0-1-.448-1-1s.448-1 1-1 1 .448 1 1-.448 1-1 1z"/><path d="m24.305 39h6.695v-15.586l-2.716 2.716c.455 1.206.716 2.507.716 3.87 0 3.72-1.861 7.008-4.695 9z"/><path d="m18 21c-4.963 0-9 4.038-9 9s4.037 9 9 9 9-4.038 9-9-4.037-9-9-9zm3 7h-2v-.146c0-.471-.384-.854-.854-.854h-.291c-.471 0-.855.383-.855.854 0 .326.181.619.473.764l1.949.975c.974.487 1.578 1.465 1.578 2.553 0 1.274-.845 2.343-2 2.709v2.145h-2v-2.145c-1.155-.366-2-1.435-2-2.709v-.146h2v.146c0 .471.384.854.854.854h.291c.471 0 .855-.383.855-.854 0-.326-.181-.619-.473-.764l-1.949-.975c-.974-.487-1.578-1.465-1.578-2.553 0-1.274.845-2.343 2-2.709v-2.145h2v2.145c1.155.366 2 1.435 2 2.709z"/><path d="m3 58c0 1.654 1.346 3 3 3h28c1.654 0 3-1.346 3-3v-7h-34zm27-3c0-.552.448-1 1-1h2c.552 0 1 .448 1 1v2c0 .552-.448 1-1 1h-2c-.552 0-1-.448-1-1zm-14 0c0-.552.448-1 1-1h6c.552 0 1 .448 1 1v2c0 .552-.448 1-1 1h-6c-.552 0-1-.448-1-1zm-10 0c0-.552.448-1 1-1h2c.552 0 1 .448 1 1v2c0 .552-.448 1-1 1h-2c-.552 0-1-.448-1-1z"/><path d="m15 6v-3h-9c-1.654 0-3 1.346-3 3v3h13.026c-.635-.838-1.026-1.87-1.026-3z"/><path d="m20 9c1.654 0 3-1.346 3-3v-3h-6v3c0 1.654 1.346 3 3 3zm0-4c.552 0 1 .448 1 1s-.448 1-1 1-1-.448-1-1 .448-1 1-1z"/><path d="m49 39h2v-13.051l-2 2.148z"/><path d="m53 39h2v-17.348l-2 2.149z"/><path d="m54.028 12.614 1.854 1.854-11.82 12.945-6.997-6.413h-.065v-.06l-4.97-4.556-6.059 6.058c.519.547.98 1.148 1.379 1.793l4.619-4.62 11.975 10.977 7.056-7.578v-.014h.013l6.461-6.94 1.911 1.912 1.34-6.697z"/><path d="m33 23.273v15.727h2v-13.893z"/><path d="m45 39h2v-8.755l-2 2.148z"/><path d="m41 39h2v-6.56l-2-1.833z"/><path d="m37 39h2v-10.227l-2-1.833z"/></g></svg>